<mxfile host="app.diagrams.net" agent="Mozilla/5.0 (Windows NT 10.0; Win64; x64) AppleWebKit/537.36 (KHTML, like Gecko) Chrome/131.0.0.0 Safari/537.36" version="26.0.8" pages="2">
  <diagram id="R2lEEEUBdFMjLlhIrx00" name="Page-1">
    <mxGraphModel dx="1223" dy="797" grid="1" gridSize="10" guides="1" tooltips="1" connect="1" arrows="1" fold="1" page="1" pageScale="1" pageWidth="850" pageHeight="1100" math="0" shadow="0" extFonts="Permanent Marker^https://fonts.googleapis.com/css?family=Permanent+Marker">
      <root>
        <mxCell id="0" />
        <mxCell id="1" parent="0" />
        <mxCell id="C-vyLk0tnHw3VtMMgP7b-1" value="" style="edgeStyle=entityRelationEdgeStyle;endArrow=ERzeroToMany;startArrow=ERone;endFill=1;startFill=0;" parent="1" source="C-vyLk0tnHw3VtMMgP7b-24" target="C-vyLk0tnHw3VtMMgP7b-6" edge="1">
          <mxGeometry width="100" height="100" relative="1" as="geometry">
            <mxPoint x="340" y="720" as="sourcePoint" />
            <mxPoint x="440" y="620" as="targetPoint" />
          </mxGeometry>
        </mxCell>
        <mxCell id="C-vyLk0tnHw3VtMMgP7b-12" value="" style="edgeStyle=entityRelationEdgeStyle;endArrow=ERzeroToMany;startArrow=ERone;endFill=1;startFill=0;" parent="1" source="C-vyLk0tnHw3VtMMgP7b-3" target="C-vyLk0tnHw3VtMMgP7b-17" edge="1">
          <mxGeometry width="100" height="100" relative="1" as="geometry">
            <mxPoint x="400" y="180" as="sourcePoint" />
            <mxPoint x="460" y="205" as="targetPoint" />
          </mxGeometry>
        </mxCell>
        <mxCell id="C-vyLk0tnHw3VtMMgP7b-2" value="Orders" style="shape=table;startSize=30;container=1;collapsible=1;childLayout=tableLayout;fixedRows=1;rowLines=0;fontStyle=1;align=center;resizeLast=1;" parent="1" vertex="1">
          <mxGeometry x="450" y="120" width="250" height="130" as="geometry" />
        </mxCell>
        <mxCell id="C-vyLk0tnHw3VtMMgP7b-3" value="" style="shape=partialRectangle;collapsible=0;dropTarget=0;pointerEvents=0;fillColor=none;points=[[0,0.5],[1,0.5]];portConstraint=eastwest;top=0;left=0;right=0;bottom=1;" parent="C-vyLk0tnHw3VtMMgP7b-2" vertex="1">
          <mxGeometry y="30" width="250" height="30" as="geometry" />
        </mxCell>
        <mxCell id="C-vyLk0tnHw3VtMMgP7b-4" value="PK" style="shape=partialRectangle;overflow=hidden;connectable=0;fillColor=none;top=0;left=0;bottom=0;right=0;fontStyle=1;" parent="C-vyLk0tnHw3VtMMgP7b-3" vertex="1">
          <mxGeometry width="30" height="30" as="geometry" />
        </mxCell>
        <mxCell id="C-vyLk0tnHw3VtMMgP7b-5" value="order_id int NOT NULL " style="shape=partialRectangle;overflow=hidden;connectable=0;fillColor=none;top=0;left=0;bottom=0;right=0;align=left;spacingLeft=6;fontStyle=5;" parent="C-vyLk0tnHw3VtMMgP7b-3" vertex="1">
          <mxGeometry x="30" width="220" height="30" as="geometry" />
        </mxCell>
        <mxCell id="C-vyLk0tnHw3VtMMgP7b-6" value="" style="shape=partialRectangle;collapsible=0;dropTarget=0;pointerEvents=0;fillColor=none;points=[[0,0.5],[1,0.5]];portConstraint=eastwest;top=0;left=0;right=0;bottom=0;" parent="C-vyLk0tnHw3VtMMgP7b-2" vertex="1">
          <mxGeometry y="60" width="250" height="30" as="geometry" />
        </mxCell>
        <mxCell id="C-vyLk0tnHw3VtMMgP7b-7" value="FK1" style="shape=partialRectangle;overflow=hidden;connectable=0;fillColor=none;top=0;left=0;bottom=0;right=0;" parent="C-vyLk0tnHw3VtMMgP7b-6" vertex="1">
          <mxGeometry width="30" height="30" as="geometry" />
        </mxCell>
        <mxCell id="C-vyLk0tnHw3VtMMgP7b-8" value="customer_id int NOT NULL" style="shape=partialRectangle;overflow=hidden;connectable=0;fillColor=none;top=0;left=0;bottom=0;right=0;align=left;spacingLeft=6;" parent="C-vyLk0tnHw3VtMMgP7b-6" vertex="1">
          <mxGeometry x="30" width="220" height="30" as="geometry" />
        </mxCell>
        <mxCell id="C-vyLk0tnHw3VtMMgP7b-9" value="" style="shape=partialRectangle;collapsible=0;dropTarget=0;pointerEvents=0;fillColor=none;points=[[0,0.5],[1,0.5]];portConstraint=eastwest;top=0;left=0;right=0;bottom=0;" parent="C-vyLk0tnHw3VtMMgP7b-2" vertex="1">
          <mxGeometry y="90" width="250" height="30" as="geometry" />
        </mxCell>
        <mxCell id="C-vyLk0tnHw3VtMMgP7b-10" value="" style="shape=partialRectangle;overflow=hidden;connectable=0;fillColor=none;top=0;left=0;bottom=0;right=0;" parent="C-vyLk0tnHw3VtMMgP7b-9" vertex="1">
          <mxGeometry width="30" height="30" as="geometry" />
        </mxCell>
        <mxCell id="C-vyLk0tnHw3VtMMgP7b-11" value="order_date date NOT NULL" style="shape=partialRectangle;overflow=hidden;connectable=0;fillColor=none;top=0;left=0;bottom=0;right=0;align=left;spacingLeft=6;" parent="C-vyLk0tnHw3VtMMgP7b-9" vertex="1">
          <mxGeometry x="30" width="220" height="30" as="geometry" />
        </mxCell>
        <mxCell id="C-vyLk0tnHw3VtMMgP7b-13" value="Shipments" style="shape=table;startSize=30;container=1;collapsible=1;childLayout=tableLayout;fixedRows=1;rowLines=0;fontStyle=1;align=center;resizeLast=1;" parent="1" vertex="1">
          <mxGeometry x="450" y="280" width="250" height="130" as="geometry" />
        </mxCell>
        <mxCell id="C-vyLk0tnHw3VtMMgP7b-14" value="" style="shape=partialRectangle;collapsible=0;dropTarget=0;pointerEvents=0;fillColor=none;points=[[0,0.5],[1,0.5]];portConstraint=eastwest;top=0;left=0;right=0;bottom=1;" parent="C-vyLk0tnHw3VtMMgP7b-13" vertex="1">
          <mxGeometry y="30" width="250" height="30" as="geometry" />
        </mxCell>
        <mxCell id="C-vyLk0tnHw3VtMMgP7b-15" value="PK" style="shape=partialRectangle;overflow=hidden;connectable=0;fillColor=none;top=0;left=0;bottom=0;right=0;fontStyle=1;" parent="C-vyLk0tnHw3VtMMgP7b-14" vertex="1">
          <mxGeometry width="30" height="30" as="geometry" />
        </mxCell>
        <mxCell id="C-vyLk0tnHw3VtMMgP7b-16" value="shipment_id int NOT NULL " style="shape=partialRectangle;overflow=hidden;connectable=0;fillColor=none;top=0;left=0;bottom=0;right=0;align=left;spacingLeft=6;fontStyle=5;" parent="C-vyLk0tnHw3VtMMgP7b-14" vertex="1">
          <mxGeometry x="30" width="220" height="30" as="geometry" />
        </mxCell>
        <mxCell id="C-vyLk0tnHw3VtMMgP7b-17" value="" style="shape=partialRectangle;collapsible=0;dropTarget=0;pointerEvents=0;fillColor=none;points=[[0,0.5],[1,0.5]];portConstraint=eastwest;top=0;left=0;right=0;bottom=0;" parent="C-vyLk0tnHw3VtMMgP7b-13" vertex="1">
          <mxGeometry y="60" width="250" height="30" as="geometry" />
        </mxCell>
        <mxCell id="C-vyLk0tnHw3VtMMgP7b-18" value="FK1" style="shape=partialRectangle;overflow=hidden;connectable=0;fillColor=none;top=0;left=0;bottom=0;right=0;" parent="C-vyLk0tnHw3VtMMgP7b-17" vertex="1">
          <mxGeometry width="30" height="30" as="geometry" />
        </mxCell>
        <mxCell id="C-vyLk0tnHw3VtMMgP7b-19" value="order_id int NOT NULL" style="shape=partialRectangle;overflow=hidden;connectable=0;fillColor=none;top=0;left=0;bottom=0;right=0;align=left;spacingLeft=6;" parent="C-vyLk0tnHw3VtMMgP7b-17" vertex="1">
          <mxGeometry x="30" width="220" height="30" as="geometry" />
        </mxCell>
        <mxCell id="C-vyLk0tnHw3VtMMgP7b-20" value="" style="shape=partialRectangle;collapsible=0;dropTarget=0;pointerEvents=0;fillColor=none;points=[[0,0.5],[1,0.5]];portConstraint=eastwest;top=0;left=0;right=0;bottom=0;" parent="C-vyLk0tnHw3VtMMgP7b-13" vertex="1">
          <mxGeometry y="90" width="250" height="30" as="geometry" />
        </mxCell>
        <mxCell id="C-vyLk0tnHw3VtMMgP7b-21" value="" style="shape=partialRectangle;overflow=hidden;connectable=0;fillColor=none;top=0;left=0;bottom=0;right=0;" parent="C-vyLk0tnHw3VtMMgP7b-20" vertex="1">
          <mxGeometry width="30" height="30" as="geometry" />
        </mxCell>
        <mxCell id="C-vyLk0tnHw3VtMMgP7b-22" value="shipment_date date NOT NULL" style="shape=partialRectangle;overflow=hidden;connectable=0;fillColor=none;top=0;left=0;bottom=0;right=0;align=left;spacingLeft=6;" parent="C-vyLk0tnHw3VtMMgP7b-20" vertex="1">
          <mxGeometry x="30" width="220" height="30" as="geometry" />
        </mxCell>
        <mxCell id="C-vyLk0tnHw3VtMMgP7b-23" value="Customers" style="shape=table;startSize=30;container=1;collapsible=1;childLayout=tableLayout;fixedRows=1;rowLines=0;fontStyle=1;align=center;resizeLast=1;" parent="1" vertex="1">
          <mxGeometry x="120" y="120" width="250" height="100" as="geometry" />
        </mxCell>
        <mxCell id="C-vyLk0tnHw3VtMMgP7b-24" value="" style="shape=partialRectangle;collapsible=0;dropTarget=0;pointerEvents=0;fillColor=none;points=[[0,0.5],[1,0.5]];portConstraint=eastwest;top=0;left=0;right=0;bottom=1;" parent="C-vyLk0tnHw3VtMMgP7b-23" vertex="1">
          <mxGeometry y="30" width="250" height="30" as="geometry" />
        </mxCell>
        <mxCell id="C-vyLk0tnHw3VtMMgP7b-25" value="PK" style="shape=partialRectangle;overflow=hidden;connectable=0;fillColor=none;top=0;left=0;bottom=0;right=0;fontStyle=1;" parent="C-vyLk0tnHw3VtMMgP7b-24" vertex="1">
          <mxGeometry width="30" height="30" as="geometry" />
        </mxCell>
        <mxCell id="C-vyLk0tnHw3VtMMgP7b-26" value="customer_id int NOT NULL " style="shape=partialRectangle;overflow=hidden;connectable=0;fillColor=none;top=0;left=0;bottom=0;right=0;align=left;spacingLeft=6;fontStyle=5;" parent="C-vyLk0tnHw3VtMMgP7b-24" vertex="1">
          <mxGeometry x="30" width="220" height="30" as="geometry" />
        </mxCell>
        <mxCell id="C-vyLk0tnHw3VtMMgP7b-27" value="" style="shape=partialRectangle;collapsible=0;dropTarget=0;pointerEvents=0;fillColor=none;points=[[0,0.5],[1,0.5]];portConstraint=eastwest;top=0;left=0;right=0;bottom=0;" parent="C-vyLk0tnHw3VtMMgP7b-23" vertex="1">
          <mxGeometry y="60" width="250" height="30" as="geometry" />
        </mxCell>
        <mxCell id="C-vyLk0tnHw3VtMMgP7b-28" value="" style="shape=partialRectangle;overflow=hidden;connectable=0;fillColor=none;top=0;left=0;bottom=0;right=0;" parent="C-vyLk0tnHw3VtMMgP7b-27" vertex="1">
          <mxGeometry width="30" height="30" as="geometry" />
        </mxCell>
        <mxCell id="C-vyLk0tnHw3VtMMgP7b-29" value="customer_name char(50) NOT NULL" style="shape=partialRectangle;overflow=hidden;connectable=0;fillColor=none;top=0;left=0;bottom=0;right=0;align=left;spacingLeft=6;" parent="C-vyLk0tnHw3VtMMgP7b-27" vertex="1">
          <mxGeometry x="30" width="220" height="30" as="geometry" />
        </mxCell>
      </root>
    </mxGraphModel>
  </diagram>
  <diagram id="AQgOYuS1NMgQO8hikKiA" name="Page-2">
    <mxGraphModel dx="1869" dy="710" grid="1" gridSize="10" guides="1" tooltips="1" connect="1" arrows="1" fold="1" page="1" pageScale="1" pageWidth="850" pageHeight="1100" math="0" shadow="0">
      <root>
        <mxCell id="0" />
        <mxCell id="1" parent="0" />
        <mxCell id="6O4OJz3jVe7m3iPST7hl-22" style="rounded=0;orthogonalLoop=1;jettySize=auto;html=1;exitX=1;exitY=0.5;exitDx=0;exitDy=0;entryX=0;entryY=0.5;entryDx=0;entryDy=0;endArrow=none;startFill=0;" edge="1" parent="1" source="6O4OJz3jVe7m3iPST7hl-3" target="6O4OJz3jVe7m3iPST7hl-21">
          <mxGeometry relative="1" as="geometry" />
        </mxCell>
        <mxCell id="6O4OJz3jVe7m3iPST7hl-3" value="Customer" style="whiteSpace=wrap;html=1;align=center;" vertex="1" parent="1">
          <mxGeometry x="150" y="350" width="110" height="40" as="geometry" />
        </mxCell>
        <mxCell id="6O4OJz3jVe7m3iPST7hl-7" value="Full Name" style="ellipse;whiteSpace=wrap;html=1;align=center;" vertex="1" parent="1">
          <mxGeometry x="50" y="440" width="100" height="40" as="geometry" />
        </mxCell>
        <mxCell id="6O4OJz3jVe7m3iPST7hl-16" value="Email Address" style="ellipse;whiteSpace=wrap;html=1;align=center;" vertex="1" parent="1">
          <mxGeometry x="160" y="440" width="100" height="40" as="geometry" />
        </mxCell>
        <mxCell id="6O4OJz3jVe7m3iPST7hl-17" value="Zip Code" style="ellipse;whiteSpace=wrap;html=1;align=center;" vertex="1" parent="1">
          <mxGeometry x="270" y="440" width="100" height="40" as="geometry" />
        </mxCell>
        <mxCell id="6O4OJz3jVe7m3iPST7hl-18" value="" style="endArrow=none;html=1;rounded=0;entryX=0.25;entryY=1;entryDx=0;entryDy=0;exitX=0.5;exitY=0;exitDx=0;exitDy=0;" edge="1" parent="1" source="6O4OJz3jVe7m3iPST7hl-7" target="6O4OJz3jVe7m3iPST7hl-3">
          <mxGeometry relative="1" as="geometry">
            <mxPoint x="110" y="440" as="sourcePoint" />
            <mxPoint x="700" y="330" as="targetPoint" />
          </mxGeometry>
        </mxCell>
        <mxCell id="6O4OJz3jVe7m3iPST7hl-19" value="" style="endArrow=none;html=1;rounded=0;entryX=0.5;entryY=1;entryDx=0;entryDy=0;exitX=0.5;exitY=0;exitDx=0;exitDy=0;" edge="1" parent="1" source="6O4OJz3jVe7m3iPST7hl-16" target="6O4OJz3jVe7m3iPST7hl-3">
          <mxGeometry relative="1" as="geometry">
            <mxPoint x="110" y="450" as="sourcePoint" />
            <mxPoint x="195" y="400" as="targetPoint" />
          </mxGeometry>
        </mxCell>
        <mxCell id="6O4OJz3jVe7m3iPST7hl-20" value="" style="endArrow=none;html=1;rounded=0;entryX=0.75;entryY=1;entryDx=0;entryDy=0;exitX=0.5;exitY=0;exitDx=0;exitDy=0;" edge="1" parent="1" source="6O4OJz3jVe7m3iPST7hl-17" target="6O4OJz3jVe7m3iPST7hl-3">
          <mxGeometry relative="1" as="geometry">
            <mxPoint x="220" y="450" as="sourcePoint" />
            <mxPoint x="220" y="400" as="targetPoint" />
          </mxGeometry>
        </mxCell>
        <mxCell id="6O4OJz3jVe7m3iPST7hl-23" value="" style="fontSize=12;html=1;endArrow=ERzeroToMany;endFill=1;rounded=0;entryX=0;entryY=0.5;entryDx=0;entryDy=0;" edge="1" parent="1" source="6O4OJz3jVe7m3iPST7hl-21" target="6O4OJz3jVe7m3iPST7hl-4">
          <mxGeometry width="100" height="100" relative="1" as="geometry">
            <mxPoint x="440" y="370" as="sourcePoint" />
            <mxPoint x="670" y="280" as="targetPoint" />
          </mxGeometry>
        </mxCell>
        <mxCell id="6O4OJz3jVe7m3iPST7hl-34" value="" style="group" vertex="1" connectable="0" parent="1">
          <mxGeometry x="680" y="250" width="235" height="470" as="geometry" />
        </mxCell>
        <mxCell id="6O4OJz3jVe7m3iPST7hl-4" value="Order" style="whiteSpace=wrap;html=1;align=center;" vertex="1" parent="6O4OJz3jVe7m3iPST7hl-34">
          <mxGeometry x="12.5" y="95" width="105" height="50" as="geometry" />
        </mxCell>
        <mxCell id="6O4OJz3jVe7m3iPST7hl-5" value="Product" style="shape=ext;margin=3;double=1;whiteSpace=wrap;html=1;align=center;" vertex="1" parent="6O4OJz3jVe7m3iPST7hl-34">
          <mxGeometry x="10" y="330" width="110" height="50" as="geometry" />
        </mxCell>
        <mxCell id="6O4OJz3jVe7m3iPST7hl-6" value="Includes" style="shape=rhombus;double=1;perimeter=rhombusPerimeter;whiteSpace=wrap;html=1;align=center;" vertex="1" parent="6O4OJz3jVe7m3iPST7hl-34">
          <mxGeometry x="5" y="210" width="120" height="60" as="geometry" />
        </mxCell>
        <mxCell id="6O4OJz3jVe7m3iPST7hl-24" style="rounded=0;orthogonalLoop=1;jettySize=auto;html=1;exitX=0.5;exitY=1;exitDx=0;exitDy=0;endArrow=none;startFill=0;entryX=0.5;entryY=0;entryDx=0;entryDy=0;" edge="1" parent="6O4OJz3jVe7m3iPST7hl-34" source="6O4OJz3jVe7m3iPST7hl-4" target="6O4OJz3jVe7m3iPST7hl-6">
          <mxGeometry relative="1" as="geometry">
            <mxPoint x="115" y="119.5" as="sourcePoint" />
            <mxPoint x="265" y="120" as="targetPoint" />
          </mxGeometry>
        </mxCell>
        <mxCell id="6O4OJz3jVe7m3iPST7hl-26" value="&lt;u&gt;Order ID&lt;/u&gt;" style="ellipse;whiteSpace=wrap;html=1;align=center;" vertex="1" parent="6O4OJz3jVe7m3iPST7hl-34">
          <mxGeometry x="160" y="150" width="100" height="40" as="geometry" />
        </mxCell>
        <mxCell id="6O4OJz3jVe7m3iPST7hl-27" style="rounded=0;orthogonalLoop=1;jettySize=auto;html=1;exitX=0.5;exitY=0;exitDx=0;exitDy=0;entryX=1;entryY=0.75;entryDx=0;entryDy=0;endArrow=none;startFill=0;" edge="1" parent="6O4OJz3jVe7m3iPST7hl-34" source="6O4OJz3jVe7m3iPST7hl-26" target="6O4OJz3jVe7m3iPST7hl-4">
          <mxGeometry relative="1" as="geometry">
            <mxPoint x="-215" y="130" as="sourcePoint" />
            <mxPoint x="-155" y="130" as="targetPoint" />
          </mxGeometry>
        </mxCell>
        <mxCell id="6O4OJz3jVe7m3iPST7hl-29" value="" style="fontSize=12;html=1;endArrow=ERoneToMany;rounded=0;entryX=0.5;entryY=0;entryDx=0;entryDy=0;exitX=0.5;exitY=1;exitDx=0;exitDy=0;" edge="1" parent="6O4OJz3jVe7m3iPST7hl-34" source="6O4OJz3jVe7m3iPST7hl-6" target="6O4OJz3jVe7m3iPST7hl-5">
          <mxGeometry width="100" height="100" relative="1" as="geometry">
            <mxPoint x="85" y="330" as="sourcePoint" />
            <mxPoint x="185" y="230" as="targetPoint" />
          </mxGeometry>
        </mxCell>
        <mxCell id="6O4OJz3jVe7m3iPST7hl-30" value="Product Name" style="ellipse;whiteSpace=wrap;html=1;align=center;" vertex="1" parent="6O4OJz3jVe7m3iPST7hl-34">
          <mxGeometry x="15" y="430" width="100" height="40" as="geometry" />
        </mxCell>
        <mxCell id="6O4OJz3jVe7m3iPST7hl-31" value="MSRP" style="ellipse;whiteSpace=wrap;html=1;align=center;" vertex="1" parent="6O4OJz3jVe7m3iPST7hl-34">
          <mxGeometry x="125" y="430" width="100" height="40" as="geometry" />
        </mxCell>
        <mxCell id="6O4OJz3jVe7m3iPST7hl-32" value="" style="endArrow=none;html=1;rounded=0;entryX=0.5;entryY=1;entryDx=0;entryDy=0;exitX=0.5;exitY=0;exitDx=0;exitDy=0;" edge="1" parent="6O4OJz3jVe7m3iPST7hl-34" source="6O4OJz3jVe7m3iPST7hl-30">
          <mxGeometry relative="1" as="geometry">
            <mxPoint x="-35" y="440" as="sourcePoint" />
            <mxPoint x="65" y="380" as="targetPoint" />
          </mxGeometry>
        </mxCell>
        <mxCell id="6O4OJz3jVe7m3iPST7hl-33" value="" style="endArrow=none;html=1;rounded=0;entryX=0.75;entryY=1;entryDx=0;entryDy=0;exitX=0.5;exitY=0;exitDx=0;exitDy=0;" edge="1" parent="6O4OJz3jVe7m3iPST7hl-34" source="6O4OJz3jVe7m3iPST7hl-31">
          <mxGeometry relative="1" as="geometry">
            <mxPoint x="75" y="440" as="sourcePoint" />
            <mxPoint x="90" y="380" as="targetPoint" />
          </mxGeometry>
        </mxCell>
        <mxCell id="6O4OJz3jVe7m3iPST7hl-36" value="Accepts Discount" style="shape=rhombus;perimeter=rhombusPerimeter;whiteSpace=wrap;html=1;align=center;" vertex="1" parent="6O4OJz3jVe7m3iPST7hl-34">
          <mxGeometry x="5" y="20" width="120" height="60" as="geometry" />
        </mxCell>
        <mxCell id="6O4OJz3jVe7m3iPST7hl-41" style="rounded=0;orthogonalLoop=1;jettySize=auto;html=1;exitX=0.5;exitY=1;exitDx=0;exitDy=0;endArrow=none;startFill=0;entryX=0.5;entryY=0;entryDx=0;entryDy=0;" edge="1" parent="6O4OJz3jVe7m3iPST7hl-34">
          <mxGeometry relative="1" as="geometry">
            <mxPoint x="64.5" as="sourcePoint" />
            <mxPoint x="64.5" y="65" as="targetPoint" />
          </mxGeometry>
        </mxCell>
        <mxCell id="6O4OJz3jVe7m3iPST7hl-35" value="" style="fontSize=12;html=1;endArrow=none;endFill=1;rounded=0;entryX=0;entryY=0.5;entryDx=0;entryDy=0;startFill=0;" edge="1" parent="1" target="6O4OJz3jVe7m3iPST7hl-21">
          <mxGeometry width="100" height="100" relative="1" as="geometry">
            <mxPoint x="440" y="370" as="sourcePoint" />
            <mxPoint x="695" y="370" as="targetPoint" />
          </mxGeometry>
        </mxCell>
        <mxCell id="6O4OJz3jVe7m3iPST7hl-21" value="Places" style="shape=rhombus;perimeter=rhombusPerimeter;whiteSpace=wrap;html=1;align=center;" vertex="1" parent="1">
          <mxGeometry x="420" y="330" width="130" height="80" as="geometry" />
        </mxCell>
        <mxCell id="6O4OJz3jVe7m3iPST7hl-25" value="Total Amount Paid for Order" style="ellipse;whiteSpace=wrap;html=1;align=center;dashed=1;" vertex="1" parent="1">
          <mxGeometry x="860" y="290" width="130" height="50" as="geometry" />
        </mxCell>
        <mxCell id="6O4OJz3jVe7m3iPST7hl-28" style="rounded=0;orthogonalLoop=1;jettySize=auto;html=1;exitX=0.5;exitY=1;exitDx=0;exitDy=0;entryX=1;entryY=0.25;entryDx=0;entryDy=0;endArrow=none;startFill=0;" edge="1" parent="1" source="6O4OJz3jVe7m3iPST7hl-25" target="6O4OJz3jVe7m3iPST7hl-4">
          <mxGeometry relative="1" as="geometry">
            <mxPoint x="875" y="330" as="sourcePoint" />
            <mxPoint x="780" y="360" as="targetPoint" />
          </mxGeometry>
        </mxCell>
        <mxCell id="6O4OJz3jVe7m3iPST7hl-37" value="Selected" style="shape=rhombus;perimeter=rhombusPerimeter;whiteSpace=wrap;html=1;align=center;" vertex="1" parent="1">
          <mxGeometry x="420" y="210" width="120" height="60" as="geometry" />
        </mxCell>
        <mxCell id="6O4OJz3jVe7m3iPST7hl-38" value="" style="group" vertex="1" connectable="0" parent="1">
          <mxGeometry y="90" width="280" height="190" as="geometry" />
        </mxCell>
        <mxCell id="6O4OJz3jVe7m3iPST7hl-2" value="Emails" style="whiteSpace=wrap;html=1;align=center;" vertex="1" parent="6O4OJz3jVe7m3iPST7hl-38">
          <mxGeometry x="160" y="30" width="100" height="40" as="geometry" />
        </mxCell>
        <mxCell id="6O4OJz3jVe7m3iPST7hl-12" style="rounded=0;orthogonalLoop=1;jettySize=auto;html=1;exitX=1;exitY=0.5;exitDx=0;exitDy=0;entryX=0;entryY=0.5;entryDx=0;entryDy=0;endArrow=none;startFill=0;" edge="1" parent="6O4OJz3jVe7m3iPST7hl-38" source="6O4OJz3jVe7m3iPST7hl-8" target="6O4OJz3jVe7m3iPST7hl-11">
          <mxGeometry relative="1" as="geometry" />
        </mxCell>
        <mxCell id="6O4OJz3jVe7m3iPST7hl-8" value="Date/Time Sent" style="ellipse;whiteSpace=wrap;html=1;align=center;" vertex="1" parent="6O4OJz3jVe7m3iPST7hl-38">
          <mxGeometry x="20" y="130" width="100" height="40" as="geometry" />
        </mxCell>
        <mxCell id="6O4OJz3jVe7m3iPST7hl-14" style="rounded=0;orthogonalLoop=1;jettySize=auto;html=1;exitX=1;exitY=0.5;exitDx=0;exitDy=0;entryX=0;entryY=0.75;entryDx=0;entryDy=0;endArrow=none;startFill=0;" edge="1" parent="6O4OJz3jVe7m3iPST7hl-38" source="6O4OJz3jVe7m3iPST7hl-9" target="6O4OJz3jVe7m3iPST7hl-2">
          <mxGeometry relative="1" as="geometry" />
        </mxCell>
        <mxCell id="6O4OJz3jVe7m3iPST7hl-9" value="Text Templates" style="ellipse;whiteSpace=wrap;html=1;align=center;" vertex="1" parent="6O4OJz3jVe7m3iPST7hl-38">
          <mxGeometry y="60" width="100" height="40" as="geometry" />
        </mxCell>
        <mxCell id="6O4OJz3jVe7m3iPST7hl-10" value="Email Unique ID" style="ellipse;whiteSpace=wrap;html=1;align=center;" vertex="1" parent="6O4OJz3jVe7m3iPST7hl-38">
          <mxGeometry width="100" height="40" as="geometry" />
        </mxCell>
        <mxCell id="6O4OJz3jVe7m3iPST7hl-11" value="Targeted Marketing Roster" style="shape=associativeEntity;whiteSpace=wrap;html=1;align=center;" vertex="1" parent="6O4OJz3jVe7m3iPST7hl-38">
          <mxGeometry x="140" y="110" width="140" height="80" as="geometry" />
        </mxCell>
        <mxCell id="6O4OJz3jVe7m3iPST7hl-15" style="rounded=0;orthogonalLoop=1;jettySize=auto;html=1;exitX=1;exitY=0.5;exitDx=0;exitDy=0;entryX=0;entryY=0.5;entryDx=0;entryDy=0;endArrow=none;startFill=0;" edge="1" parent="6O4OJz3jVe7m3iPST7hl-38" source="6O4OJz3jVe7m3iPST7hl-10" target="6O4OJz3jVe7m3iPST7hl-2">
          <mxGeometry relative="1" as="geometry">
            <mxPoint x="110" y="90" as="sourcePoint" />
            <mxPoint x="170" y="70" as="targetPoint" />
          </mxGeometry>
        </mxCell>
        <mxCell id="6O4OJz3jVe7m3iPST7hl-40" value="Promo Code" style="whiteSpace=wrap;html=1;align=center;" vertex="1" parent="1">
          <mxGeometry x="690" y="200" width="110" height="50" as="geometry" />
        </mxCell>
      </root>
    </mxGraphModel>
  </diagram>
</mxfile>
